<svg width="49" height="49" viewBox="0 0 49 49" fill="none" xmlns="http://www.w3.org/2000/svg">
<path d="M41.4 7.31689H35.9V16.9169H41.4V7.31689Z" fill="#F05540"/>
<path d="M43.5 2.41699H33.8V7.61699H43.5V2.41699Z" fill="#F3705A"/>
<path d="M4.19995 26.317V48.417H43.4V26.317L23.8 6.71704C16.2 14.417 11.9 18.717 4.19995 26.317Z" fill="#FFD15C"/>
<path d="M43.5 26.317L23.9 6.71704C20 10.517 17 13.517 14 16.517L4.19995 26.317V30.817L23.8 11.217L43.4 30.817V31.417V26.317H43.5Z" fill="#F7B64C"/>
<path d="M20.3 48.417H8.5V36.817C8.50291 35.2531 9.12545 33.7541 10.2313 32.6483C11.3371 31.5424 12.8361 30.9199 14.4 30.917C15.9639 30.9199 17.4629 31.5424 18.5687 32.6483C19.6746 33.7541 20.2971 35.2531 20.3 36.817V48.417Z" fill="#415A6B"/>
<path d="M39.2 30.917H23.8V44.417H39.2V30.917Z" fill="#344A5E"/>
<path d="M30.7 32.5171H25.4V42.8171H30.7V32.5171Z" fill="#8AD7F8"/>
<path d="M37.6 32.5171H32.3V42.8171H37.6V32.5171Z" fill="#8AD7F8"/>
<path d="M47.1002 22.2172L26.2002 1.31718C25.5936 0.739322 24.788 0.416992 23.9502 0.416992C23.1124 0.416992 22.3068 0.739322 21.7002 1.31718L0.90019 22.2172C0.32233 22.8238 0 23.6294 0 24.4672C0 25.305 0.32233 26.1106 0.90019 26.7172C1.50688 27.2948 2.31249 27.617 3.15019 27.617C3.98789 27.617 4.7935 27.2948 5.40019 26.7172L24.0002 8.11718L42.6002 26.7172C43.1976 27.3105 44.0059 27.6428 44.8479 27.6413C45.6899 27.6398 46.497 27.3047 47.0923 26.7093C47.6877 26.1139 48.0228 25.3069 48.0243 24.4649C48.0258 23.6229 47.6935 22.8146 47.1002 22.2172Z" fill="#F3705A"/>
</svg>
