<svg width="29" height="29" viewBox="0 0 29 29" fill="none" xmlns="http://www.w3.org/2000/svg">
<g filter="url(#filter0_d_3_4001)">
<path d="M23.476 8.298H11.621V7.451H15.008C15.1192 7.451 15.2294 7.42909 15.3321 7.38653C15.4349 7.34396 15.5283 7.28157 15.6069 7.20292C15.6856 7.12427 15.748 7.0309 15.7905 6.92813C15.8331 6.82537 15.855 6.71523 15.855 6.604V1.524C15.855 1.29936 15.7658 1.08393 15.6069 0.925083C15.4481 0.766239 15.2326 0.677002 15.008 0.677002L6.54 0.677002C6.31536 0.677002 6.09992 0.766239 5.94108 0.925083C5.78224 1.08393 5.693 1.29936 5.693 1.524V6.604C5.693 6.82864 5.78224 7.04408 5.94108 7.20292C6.09992 7.36176 6.31536 7.451 6.54 7.451H9.927V8.298H4.847C4.73577 8.298 4.62563 8.31991 4.52287 8.36248C4.4201 8.40504 4.32673 8.46743 4.24808 8.54608C4.16943 8.62473 4.10704 8.71811 4.06447 8.82087C4.02191 8.92363 4 9.03377 4 9.145V21H5.694V12.532H15.855V18.459C15.855 18.6836 15.9442 18.8991 16.1031 19.0579C16.2619 19.2168 16.4774 19.306 16.702 19.306H22.629V21H24.323V9.145C24.323 8.92036 24.2338 8.70493 24.0749 8.54608C23.9161 8.38724 23.7006 8.298 23.476 8.298ZM7.387 2.371H14.161V5.758H7.387V2.371ZM5.694 9.992H22.629V10.839H5.694V9.992ZM22.63 12.532V14.226H17.548V12.532H22.63ZM17.549 17.613V15.919H22.63V17.613H17.549Z" fill="white"/>
</g>
<defs>
<filter id="filter0_d_3_4001" x="0" y="0.677002" width="28.323" height="28.323" filterUnits="userSpaceOnUse" color-interpolation-filters="sRGB">
<feFlood flood-opacity="0" result="BackgroundImageFix"/>
<feColorMatrix in="SourceAlpha" type="matrix" values="0 0 0 0 0 0 0 0 0 0 0 0 0 0 0 0 0 0 127 0" result="hardAlpha"/>
<feOffset dy="4"/>
<feGaussianBlur stdDeviation="2"/>
<feComposite in2="hardAlpha" operator="out"/>
<feColorMatrix type="matrix" values="0 0 0 0 0 0 0 0 0 0 0 0 0 0 0 0 0 0 0.25 0"/>
<feBlend mode="normal" in2="BackgroundImageFix" result="effect1_dropShadow_3_4001"/>
<feBlend mode="normal" in="SourceGraphic" in2="effect1_dropShadow_3_4001" result="shape"/>
</filter>
</defs>
</svg>
