<svg width="18" height="29" viewBox="0 0 18 29" fill="none" xmlns="http://www.w3.org/2000/svg">
<path d="M17.287 14.315C17.287 12.8174 16.8979 11.3454 16.1578 10.0434C15.4177 8.74146 14.352 7.6541 13.0652 6.88793C11.7783 6.12176 10.3145 5.70307 8.81719 5.6729C7.31985 5.64272 5.84037 6.0021 4.52373 6.7158C3.20708 7.4295 2.09845 8.47304 1.30649 9.74415C0.514526 11.0153 0.0664107 12.4703 0.00604853 13.9668C-0.0543136 15.4632 0.27515 16.9496 0.962157 18.2804C1.64916 19.6111 2.67014 20.7406 3.92502 21.558V24.281C3.92502 25.5323 4.42209 26.7324 5.30689 27.6171C6.19169 28.5019 7.39174 28.999 8.64303 28.999C9.89432 28.999 11.0944 28.5019 11.9792 27.6171C12.864 26.7324 13.361 25.5323 13.361 24.281V21.558C14.5646 20.7708 15.5535 19.6967 16.2388 18.4324C16.9241 17.168 17.2843 15.7531 17.287 14.315ZM11.695 24.281C11.6664 25.0708 11.3326 25.8187 10.7637 26.3673C10.1948 26.916 9.43534 27.2225 8.64503 27.2225C7.85471 27.2225 7.09521 26.916 6.52635 26.3673C5.95749 25.8187 5.62363 25.0708 5.59502 24.281V23.581H11.695V24.281ZM12.113 20.369C11.986 20.442 11.8805 20.5472 11.8071 20.6739C11.7337 20.8007 11.6951 20.9445 11.695 21.091V21.917H9.47603V17.609C10.0182 17.4329 10.4908 17.0897 10.826 16.6286C11.1612 16.1675 11.3418 15.6121 11.342 15.042C11.342 14.8211 11.2543 14.6092 11.098 14.453C10.9418 14.2968 10.7299 14.209 10.509 14.209C10.2881 14.209 10.0762 14.2968 9.92 14.453C9.76379 14.6092 9.67602 14.8211 9.67602 15.042C9.67602 15.316 9.56719 15.5787 9.37346 15.7725C9.17974 15.9662 8.917 16.075 8.64303 16.075C8.36906 16.075 8.10631 15.9662 7.91258 15.7725C7.71886 15.5787 7.61002 15.316 7.61002 15.042C7.61002 14.8211 7.52226 14.6092 7.36604 14.453C7.20982 14.2968 6.99795 14.209 6.77702 14.209C6.5561 14.209 6.34422 14.2968 6.188 14.453C6.03178 14.6092 5.94402 14.8211 5.94402 15.042C5.94423 15.6121 6.12487 16.1675 6.46007 16.6286C6.79527 17.0897 7.26782 17.4329 7.81003 17.609V21.917H5.59202V21.09C5.59198 20.9435 5.55331 20.7997 5.47993 20.6729C5.40654 20.5462 5.30102 20.441 5.17403 20.368C3.83969 19.6032 2.7954 18.419 2.2035 16.9995C1.61159 15.58 1.50524 14.0047 1.90096 12.5185C2.29668 11.0323 3.17232 9.7185 4.39174 8.78128C5.61116 7.84406 7.10605 7.33596 8.64403 7.33596C10.182 7.33596 11.6769 7.84406 12.8963 8.78128C14.1157 9.7185 14.9914 11.0323 15.3871 12.5185C15.7828 14.0047 15.6764 15.58 15.0845 16.9995C14.4926 18.419 13.4484 19.6032 12.114 20.368L12.113 20.369Z" fill="#FFD239"/>
<path d="M8.64304 0.820068C8.42211 0.820068 8.21023 0.907831 8.05402 1.06405C7.8978 1.22027 7.81003 1.43214 7.81003 1.65307V3.12007C7.81003 3.34099 7.8978 3.55287 8.05402 3.70909C8.21023 3.86531 8.42211 3.95307 8.64304 3.95307C8.86396 3.95307 9.07584 3.86531 9.23206 3.70909C9.38827 3.55287 9.47603 3.34099 9.47603 3.12007V1.65307C9.47603 1.43214 9.38827 1.22027 9.23206 1.06405C9.07584 0.907831 8.86396 0.820068 8.64304 0.820068Z" fill="#FFD239"/>
<path d="M6.30001 3.32914L5.78301 1.96114C5.7049 1.7544 5.54787 1.58716 5.34646 1.49621C5.14504 1.40525 4.91574 1.39803 4.70901 1.47614C4.50227 1.55425 4.33503 1.71128 4.24407 1.91269C4.15312 2.11411 4.1459 2.3434 4.22401 2.55014L4.741 3.91814C4.81911 4.12488 4.97614 4.29212 5.17756 4.38307C5.37897 4.47403 5.60827 4.48125 5.81501 4.40314C6.02174 4.32503 6.18899 4.168 6.27994 3.96659C6.3709 3.76517 6.37812 3.53588 6.30001 3.32914Z" fill="#FFD239"/>
<path d="M12.578 1.4761C12.4756 1.43739 12.3666 1.41922 12.2572 1.42265C12.1479 1.42607 12.0402 1.45102 11.9405 1.49606C11.8408 1.5411 11.7509 1.60535 11.676 1.68515C11.6011 1.76494 11.5426 1.85871 11.504 1.9611L10.987 3.3291C10.9483 3.43146 10.9302 3.54044 10.9336 3.64982C10.9371 3.75919 10.962 3.86682 11.0071 3.96655C11.0521 4.06628 11.1163 4.15616 11.1961 4.23106C11.2759 4.30597 11.3696 4.36442 11.472 4.4031C11.5744 4.44177 11.6833 4.45991 11.7927 4.45646C11.9021 4.45302 12.0097 4.42807 12.1095 4.38303C12.2092 4.33799 12.299 4.27376 12.3739 4.19398C12.4489 4.11421 12.5073 4.02046 12.546 3.9181L13.063 2.5501C13.1017 2.44774 13.1199 2.33875 13.1164 2.22936C13.113 2.11998 13.0881 2.01234 13.043 1.9126C12.998 1.81286 12.9338 1.72298 12.854 1.64808C12.7742 1.57318 12.6804 1.51474 12.578 1.4761Z" fill="#FFD239"/>
</svg>
