<svg width="18" height="24" viewBox="0 0 18 24" fill="none" xmlns="http://www.w3.org/2000/svg">
<path d="M17.287 9.31502C17.287 7.81738 16.8979 6.34544 16.1578 5.04345C15.4177 3.74146 14.352 2.6541 13.0652 1.88793C11.7783 1.12176 10.3145 0.703074 8.81719 0.672898C7.31985 0.642722 5.84037 1.0021 4.52373 1.7158C3.20708 2.4295 2.09845 3.47304 1.30649 4.74415C0.514526 6.01526 0.0664107 7.47033 0.00604853 8.96675C-0.0543136 10.4632 0.27515 11.9496 0.962157 13.2804C1.64916 14.6111 2.67014 15.7406 3.92502 16.558V19.281C3.92502 20.5323 4.42209 21.7324 5.30689 22.6171C6.19169 23.5019 7.39174 23.999 8.64303 23.999C9.89432 23.999 11.0944 23.5019 11.9792 22.6171C12.864 21.7324 13.361 20.5323 13.361 19.281V16.558C14.5646 15.7708 15.5535 14.6967 16.2388 13.4324C16.9241 12.168 17.2843 10.7531 17.287 9.31502ZM11.695 19.281C11.6664 20.0708 11.3326 20.8187 10.7637 21.3673C10.1948 21.916 9.43534 22.2225 8.64503 22.2225C7.85471 22.2225 7.09521 21.916 6.52635 21.3673C5.95749 20.8187 5.62363 20.0708 5.59502 19.281V18.581H11.695V19.281ZM12.113 15.369C11.986 15.442 11.8805 15.5472 11.8071 15.6739C11.7337 15.8007 11.6951 15.9445 11.695 16.091V16.917H9.47603V12.609C10.0182 12.4329 10.4908 12.0897 10.826 11.6286C11.1612 11.1675 11.3418 10.6121 11.342 10.042C11.342 9.8211 11.2543 9.60921 11.098 9.453C10.9418 9.29678 10.7299 9.20902 10.509 9.20902C10.2881 9.20902 10.0762 9.29678 9.92 9.453C9.76379 9.60921 9.67602 9.8211 9.67602 10.042C9.67602 10.316 9.56719 10.5787 9.37346 10.7725C9.17974 10.9662 8.917 11.075 8.64303 11.075C8.36906 11.075 8.10631 10.9662 7.91258 10.7725C7.71886 10.5787 7.61002 10.316 7.61002 10.042C7.61002 9.8211 7.52226 9.60921 7.36604 9.453C7.20982 9.29678 6.99795 9.20902 6.77702 9.20902C6.5561 9.20902 6.34422 9.29678 6.188 9.453C6.03178 9.60921 5.94402 9.8211 5.94402 10.042C5.94423 10.6121 6.12487 11.1675 6.46007 11.6286C6.79527 12.0897 7.26782 12.4329 7.81003 12.609V16.917H5.59202V16.09C5.59198 15.9435 5.55331 15.7997 5.47993 15.6729C5.40654 15.5462 5.30102 15.441 5.17403 15.368C3.83969 14.6032 2.7954 13.419 2.2035 11.9995C1.61159 10.58 1.50524 9.00471 1.90096 7.51852C2.29668 6.03233 3.17232 4.7185 4.39174 3.78128C5.61116 2.84406 7.10605 2.33596 8.64403 2.33596C10.182 2.33596 11.6769 2.84406 12.8963 3.78128C14.1157 4.7185 14.9914 6.03233 15.3871 7.51852C15.7828 9.00471 15.6764 10.58 15.0845 11.9995C14.4926 13.419 13.4484 14.6032 12.114 15.368L12.113 15.369Z" fill="#CECECE"/>
</svg>
