<svg width="21" height="21" viewBox="0 0 21 21" fill="none" xmlns="http://www.w3.org/2000/svg">
<path d="M10.212 0.574951C8.87398 0.575428 7.5701 0.997433 6.48552 1.78104C5.40094 2.56465 4.5908 3.67003 4.17014 4.94023C3.74947 6.21042 3.73966 7.58086 4.1421 8.85694C4.54454 10.133 5.33877 11.2499 6.41202 12.049V12.581C6.22262 12.7467 6.06852 12.9488 5.95886 13.1754C5.84921 13.4019 5.78626 13.6482 5.77375 13.8995C5.76125 14.1509 5.79946 14.4022 5.88609 14.6385C5.97272 14.8748 6.10601 15.0912 6.27802 15.275C6.06066 15.5076 5.90598 15.7916 5.82849 16.1004C5.751 16.4092 5.75324 16.7327 5.83502 17.0404C5.91679 17.3481 6.0754 17.63 6.29598 17.8595C6.51655 18.0891 6.79185 18.2589 7.09603 18.353C7.21842 19.0919 7.59918 19.7635 8.17047 20.2479C8.74176 20.7324 9.46648 20.9983 10.2155 20.9983C10.9646 20.9983 11.6893 20.7324 12.2606 20.2479C12.8319 19.7635 13.2126 19.0919 13.335 18.353C13.6387 18.2582 13.9134 18.0879 14.1333 17.858C14.3532 17.6281 14.5111 17.3461 14.5923 17.0385C14.6734 16.7309 14.6751 16.4077 14.5973 16.0993C14.5194 15.7908 14.3645 15.5072 14.147 15.275C14.319 15.0912 14.4523 14.8748 14.539 14.6385C14.6256 14.4022 14.6638 14.1509 14.6513 13.8995C14.6388 13.6482 14.5758 13.4019 14.4662 13.1754C14.3565 12.9488 14.2024 12.7467 14.013 12.581V12.049C15.0863 11.2498 15.8806 10.1329 16.283 8.85671C16.6854 7.58052 16.6755 6.20999 16.2548 4.93975C15.834 3.66951 15.0237 2.56413 13.9389 1.7806C12.8542 0.997072 11.5501 0.575218 10.212 0.574951ZM12.776 13.309C12.9528 13.3157 13.12 13.3907 13.2427 13.5181C13.3654 13.6456 13.4339 13.8156 13.4339 13.9925C13.4339 14.1693 13.3654 14.3393 13.2427 14.4668C13.12 14.5942 12.9528 14.6692 12.776 14.676H7.64702C7.55506 14.6795 7.46334 14.6644 7.37734 14.6316C7.29135 14.5989 7.21285 14.5491 7.14655 14.4853C7.08024 14.4215 7.0275 14.3449 6.99147 14.2602C6.95544 14.1756 6.93688 14.0845 6.93688 13.9925C6.93688 13.9004 6.95544 13.8093 6.99147 13.7247C7.0275 13.64 7.08024 13.5634 7.14655 13.4996C7.21285 13.4358 7.29135 13.386 7.37734 13.3533C7.46334 13.3205 7.55506 13.3054 7.64702 13.309H12.776ZM10.212 19.804C9.79552 19.8034 9.38992 19.6707 9.05355 19.4251C8.71718 19.1795 8.46736 18.8335 8.34002 18.437H12.085C11.9576 18.8337 11.7077 19.1798 11.3711 19.4254C11.0345 19.671 10.6287 19.8036 10.212 19.804ZM12.776 17.24H7.64702C7.46574 17.24 7.29189 17.1679 7.16371 17.0398C7.03553 16.9116 6.96353 16.7377 6.96353 16.5565C6.96353 16.3752 7.03553 16.2013 7.16371 16.0731C7.29189 15.945 7.46574 15.873 7.64702 15.873H12.775C12.9563 15.873 13.1302 15.945 13.2583 16.0731C13.3865 16.2013 13.4585 16.3752 13.4585 16.5565C13.4585 16.7377 13.3865 16.9116 13.2583 17.0398C13.1302 17.1679 12.9573 17.24 12.776 17.24ZM13.084 11.24C13.0019 11.2949 12.9347 11.3694 12.8883 11.4566C12.8419 11.5438 12.8178 11.6412 12.818 11.74V12.114H12.092V9.75395L12.951 8.89495C13.0138 8.84116 13.0648 8.77497 13.1009 8.70053C13.1369 8.62609 13.1571 8.54501 13.1603 8.46238C13.1635 8.37975 13.1496 8.29735 13.1194 8.22036C13.0892 8.14336 13.0435 8.07343 12.985 8.01496C12.9265 7.95649 12.8566 7.91073 12.7796 7.88057C12.7026 7.8504 12.6202 7.83648 12.5376 7.83967C12.455 7.84286 12.3739 7.8631 12.2994 7.89912C12.225 7.93513 12.1588 7.98614 12.105 8.04895L11.07 9.08395C10.9581 9.19628 10.8952 9.34836 10.895 9.50695V12.113H9.52802V9.50595C9.52789 9.34736 9.46496 9.19528 9.35302 9.08295L8.31803 8.04795C8.26424 7.98514 8.19804 7.93413 8.12361 7.89812C8.04917 7.8621 7.96809 7.84186 7.88545 7.83867C7.80282 7.83548 7.72042 7.8494 7.64343 7.87957C7.56643 7.90973 7.49651 7.95549 7.43804 8.01396C7.37956 8.07243 7.33381 8.14236 7.30364 8.21936C7.27348 8.29635 7.25955 8.37875 7.26274 8.46138C7.26593 8.54401 7.28618 8.62509 7.32219 8.69953C7.35821 8.77397 7.40922 8.84016 7.47202 8.89395L8.33103 9.75295V12.112H7.60502V11.738C7.60528 11.6392 7.58113 11.5418 7.53473 11.4546C7.48833 11.3674 7.4211 11.2929 7.33902 11.238C6.41673 10.6218 5.71706 9.72535 5.34333 8.68103C4.96961 7.63671 4.94165 6.49988 5.26359 5.43845C5.58553 4.37703 6.2403 3.44728 7.13119 2.78652C8.02208 2.12577 9.10185 1.76905 10.211 1.76905C11.3202 1.76905 12.4 2.12577 13.2909 2.78652C14.1817 3.44728 14.8365 4.37703 15.1585 5.43845C15.4804 6.49988 15.4524 7.63671 15.0787 8.68103C14.705 9.72535 14.0053 10.6218 13.083 11.238L13.084 11.24Z" fill="#002D67"/>
<path d="M2.479 6.94191C2.479 6.78278 2.41579 6.63018 2.30326 6.51765C2.19074 6.40513 2.03813 6.34192 1.879 6.34192H0.6C0.521207 6.34192 0.443185 6.35744 0.37039 6.38759C0.297595 6.41774 0.231451 6.46194 0.175736 6.51765C0.120021 6.57337 0.0758251 6.6395 0.0456723 6.7123C0.0155195 6.78509 0 6.86312 0 6.94191C0 7.0207 0.0155195 7.09873 0.0456723 7.17152C0.0758251 7.24432 0.120021 7.31047 0.175736 7.36618C0.231451 7.4219 0.297595 7.46609 0.37039 7.49625C0.443185 7.5264 0.521207 7.54192 0.6 7.54192H1.88C2.03896 7.54165 2.19131 7.47832 2.30362 7.36583C2.41592 7.25334 2.479 7.10087 2.479 6.94191Z" fill="#002D67"/>
<path d="M19.826 6.34192H18.544C18.4652 6.34192 18.3872 6.35744 18.3144 6.38759C18.2416 6.41774 18.1754 6.46194 18.1197 6.51765C18.064 6.57337 18.0198 6.6395 17.9897 6.7123C17.9595 6.78509 17.944 6.86312 17.944 6.94191C17.944 7.0207 17.9595 7.09873 17.9897 7.17152C18.0198 7.24432 18.064 7.31047 18.1197 7.36618C18.1754 7.4219 18.2416 7.46609 18.3144 7.49625C18.3872 7.5264 18.4652 7.54192 18.544 7.54192H19.826C19.9048 7.54192 19.9828 7.5264 20.0556 7.49625C20.1284 7.46609 20.1945 7.4219 20.2502 7.36618C20.306 7.31047 20.3502 7.24432 20.3803 7.17152C20.4105 7.09873 20.426 7.0207 20.426 6.94191C20.426 6.86312 20.4105 6.78509 20.3803 6.7123C20.3502 6.6395 20.306 6.57337 20.2502 6.51765C20.1945 6.46194 20.1284 6.41774 20.0556 6.38759C19.9828 6.35744 19.9048 6.34192 19.826 6.34192Z" fill="#002D67"/>
<path d="M2.69799 10.59L1.58799 11.231C1.51418 11.2673 1.44861 11.3183 1.39535 11.381C1.3421 11.4437 1.30229 11.5166 1.27841 11.5953C1.25453 11.674 1.24709 11.7568 1.25654 11.8385C1.26599 11.9202 1.29214 11.9991 1.33336 12.0702C1.37457 12.1414 1.42998 12.2033 1.49614 12.2522C1.56229 12.301 1.63779 12.3358 1.71793 12.3542C1.79808 12.3727 1.88116 12.3745 1.96202 12.3595C2.04289 12.3445 2.1198 12.313 2.18799 12.267L3.29799 11.626C3.37087 11.5892 3.43548 11.5379 3.48784 11.4752C3.54021 11.4126 3.57923 11.3399 3.60252 11.2616C3.62581 11.1833 3.63288 11.1011 3.6233 11.0201C3.61371 10.939 3.58768 10.8607 3.54678 10.79C3.50588 10.7193 3.45099 10.6577 3.38546 10.609C3.31994 10.5603 3.24515 10.5254 3.16569 10.5066C3.08623 10.4878 3.00376 10.4854 2.92334 10.4996C2.84292 10.5137 2.76624 10.5442 2.69799 10.589V10.59Z" fill="#002D67"/>
<path d="M17.429 3.37392C17.5343 3.37404 17.6377 3.34645 17.729 3.29392L18.839 2.65292C18.9128 2.61666 18.9784 2.5656 19.0316 2.50293C19.0849 2.44026 19.1247 2.36731 19.1486 2.28861C19.1724 2.20992 19.1799 2.12715 19.1704 2.04545C19.161 1.96375 19.1348 1.88487 19.0936 1.8137C19.0524 1.74254 18.997 1.6806 18.9308 1.63175C18.8647 1.58289 18.7892 1.54816 18.709 1.5297C18.6289 1.51125 18.5458 1.50947 18.4649 1.52447C18.3841 1.53948 18.3072 1.57095 18.239 1.61692L17.129 2.25792C17.0159 2.32453 16.9277 2.42638 16.8781 2.54788C16.8284 2.66937 16.8199 2.8038 16.854 2.93057C16.888 3.05733 16.9627 3.16944 17.0666 3.2497C17.1704 3.32996 17.2977 3.37295 17.429 3.37392Z" fill="#002D67"/>
<path d="M18.838 11.231L17.728 10.5899C17.6598 10.544 17.5829 10.5125 17.5021 10.4975C17.4212 10.4825 17.3381 10.4843 17.258 10.5027C17.1778 10.5212 17.1023 10.5559 17.0362 10.6048C16.97 10.6536 16.9146 10.7156 16.8734 10.7867C16.8322 10.8579 16.806 10.9368 16.7966 11.0185C16.7871 11.1002 16.7946 11.1829 16.8184 11.2616C16.8423 11.3403 16.8821 11.4133 16.9354 11.476C16.9886 11.5386 17.0542 11.5897 17.128 11.6259L18.238 12.2669C18.3062 12.3129 18.3831 12.3444 18.464 12.3594C18.5449 12.3744 18.6279 12.3726 18.7081 12.3542C18.7882 12.3357 18.8637 12.301 18.9299 12.2521C18.996 12.2033 19.0514 12.1413 19.0927 12.0702C19.1339 11.999 19.16 11.9201 19.1695 11.8384C19.1789 11.7567 19.1715 11.674 19.1476 11.5953C19.1237 11.5166 19.0839 11.4436 19.0307 11.3809C18.9774 11.3183 18.9118 11.2672 18.838 11.231Z" fill="#002D67"/>
<path d="M3.30001 2.25693L2.19001 1.61593C2.05355 1.54888 1.89673 1.53615 1.75123 1.58029C1.60574 1.62444 1.48243 1.72217 1.40623 1.85374C1.33003 1.98531 1.30662 2.14091 1.34074 2.28907C1.37486 2.43724 1.46395 2.56693 1.59002 2.65193L2.70002 3.29293C2.83679 3.36202 2.99482 3.37617 3.1417 3.33246C3.28857 3.28875 3.41316 3.19051 3.4899 3.05787C3.56664 2.92523 3.58973 2.76826 3.55442 2.61914C3.51911 2.47002 3.42809 2.34107 3.30001 2.25693Z" fill="#002D67"/>
</svg>
