<?xml version="1.0" encoding="UTF-8" standalone="no"?>
<!DOCTYPE svg PUBLIC "-//W3C//DTD SVG 1.1//EN" "http://www.w3.org/Graphics/SVG/1.1/DTD/svg11.dtd">
<svg width="100%" height="100%" viewBox="0 0 21 21" version="1.1" xmlns="http://www.w3.org/2000/svg" xmlns:xlink="http://www.w3.org/1999/xlink" xml:space="preserve" xmlns:serif="http://www.serif.com/" style="fill-rule:evenodd;clip-rule:evenodd;stroke-linejoin:round;stroke-miterlimit:2;">
    <path d="M10.212,0.575C8.874,0.575 7.57,0.997 6.486,1.781C5.401,2.565 4.591,3.67 4.17,4.94C3.749,6.21 3.74,7.581 4.142,8.857C4.545,10.133 5.339,11.25 6.412,12.049L6.412,12.581C6.223,12.747 6.069,12.949 5.959,13.175C5.849,13.402 5.786,13.648 5.774,13.9C5.761,14.151 5.799,14.402 5.886,14.639C5.973,14.875 6.106,15.091 6.278,15.275C6.061,15.508 5.906,15.792 5.828,16.1C5.751,16.409 5.753,16.733 5.835,17.04C5.917,17.348 6.075,17.63 6.296,17.86C6.517,18.089 6.792,18.259 7.096,18.353C7.218,19.092 7.599,19.764 8.17,20.248C8.742,20.732 9.466,20.998 10.216,20.998C10.965,20.998 11.689,20.732 12.261,20.248C12.832,19.764 13.213,19.092 13.335,18.353C13.639,18.258 13.913,18.088 14.133,17.858C14.353,17.628 14.511,17.346 14.592,17.039C14.673,16.731 14.675,16.408 14.597,16.099C14.519,15.791 14.365,15.507 14.147,15.275C14.319,15.091 14.452,14.875 14.539,14.639C14.626,14.402 14.664,14.151 14.651,13.9C14.639,13.648 14.576,13.402 14.466,13.175C14.357,12.949 14.202,12.747 14.013,12.581L14.013,12.049C15.086,11.25 15.881,10.133 16.283,8.857C16.685,7.581 16.676,6.21 16.255,4.94C15.834,3.67 15.024,2.564 13.939,1.781C12.854,0.997 11.55,0.575 10.212,0.575ZM12.776,13.309C12.953,13.316 13.12,13.391 13.243,13.518C13.365,13.646 13.434,13.816 13.434,13.993C13.434,14.169 13.365,14.339 13.243,14.467C13.12,14.594 12.953,14.669 12.776,14.676L7.647,14.676C7.555,14.68 7.463,14.664 7.377,14.632C7.291,14.599 7.213,14.549 7.147,14.485C7.08,14.422 7.028,14.345 6.991,14.26C6.955,14.176 6.937,14.085 6.937,13.993C6.937,13.9 6.955,13.809 6.991,13.725C7.028,13.64 7.08,13.563 7.147,13.5C7.213,13.436 7.291,13.386 7.377,13.353C7.463,13.32 7.555,13.305 7.647,13.309L12.776,13.309ZM10.212,19.804C9.796,19.803 9.39,19.671 9.054,19.425C8.717,19.18 8.467,18.834 8.34,18.437L12.085,18.437C11.958,18.834 11.708,19.18 11.371,19.425C11.035,19.671 10.629,19.804 10.212,19.804ZM12.776,17.24L7.647,17.24C7.466,17.24 7.292,17.168 7.164,17.04C7.036,16.912 6.964,16.738 6.964,16.557C6.964,16.375 7.036,16.201 7.164,16.073C7.292,15.945 7.466,15.873 7.647,15.873L12.775,15.873C12.956,15.873 13.13,15.945 13.258,16.073C13.387,16.201 13.459,16.375 13.459,16.557C13.459,16.738 13.387,16.912 13.258,17.04C13.13,17.168 12.957,17.24 12.776,17.24ZM13.084,11.24C13.002,11.295 12.935,11.369 12.888,11.457C12.842,11.544 12.818,11.641 12.818,11.74L12.818,12.114L12.092,12.114L12.092,9.754L12.951,8.895C13.014,8.841 13.065,8.775 13.101,8.701C13.137,8.626 13.157,8.545 13.16,8.462C13.164,8.38 13.15,8.297 13.119,8.22C13.089,8.143 13.044,8.073 12.985,8.015C12.927,7.956 12.857,7.911 12.78,7.881C12.703,7.85 12.62,7.836 12.538,7.84C12.455,7.843 12.374,7.863 12.299,7.899C12.225,7.935 12.159,7.986 12.105,8.049L11.07,9.084C10.958,9.196 10.895,9.348 10.895,9.507L10.895,12.113L9.528,12.113L9.528,9.506C9.528,9.347 9.465,9.195 9.353,9.083L8.318,8.048C8.264,7.985 8.198,7.934 8.124,7.898C8.049,7.862 7.968,7.842 7.885,7.839C7.803,7.835 7.72,7.849 7.643,7.88C7.566,7.91 7.497,7.955 7.438,8.014C7.38,8.072 7.334,8.142 7.304,8.219C7.273,8.296 7.26,8.379 7.263,8.461C7.266,8.544 7.286,8.625 7.322,8.7C7.358,8.774 7.409,8.84 7.472,8.894L8.331,9.753L8.331,12.112L7.605,12.112L7.605,11.738C7.605,11.639 7.581,11.542 7.535,11.455C7.488,11.367 7.421,11.293 7.339,11.238C6.417,10.622 5.717,9.725 5.343,8.681C4.97,7.637 4.942,6.5 5.264,5.438C5.586,4.377 6.24,3.447 7.131,2.787C8.022,2.126 9.102,1.769 10.211,1.769C11.32,1.769 12.4,2.126 13.291,2.787C14.182,3.447 14.836,4.377 15.159,5.438C15.48,6.5 15.452,7.637 15.079,8.681C14.705,9.725 14.005,10.622 13.083,11.238L13.084,11.24Z" style="fill:white;fill-rule:nonzero;"/>
    <path d="M2.479,6.942C2.479,6.783 2.416,6.63 2.303,6.518C2.191,6.405 2.038,6.342 1.879,6.342L0.6,6.342C0.521,6.342 0.443,6.357 0.37,6.388C0.298,6.418 0.231,6.462 0.176,6.518C0.12,6.573 0.076,6.64 0.046,6.712C0.016,6.785 0,6.863 0,6.942C0,7.021 0.016,7.099 0.046,7.172C0.076,7.244 0.12,7.31 0.176,7.366C0.231,7.422 0.298,7.466 0.37,7.496C0.443,7.526 0.521,7.542 0.6,7.542L1.88,7.542C2.039,7.542 2.191,7.478 2.304,7.366C2.416,7.253 2.479,7.101 2.479,6.942Z" style="fill:white;fill-rule:nonzero;"/>
    <path d="M19.826,6.342L18.544,6.342C18.465,6.342 18.387,6.357 18.314,6.388C18.242,6.418 18.175,6.462 18.12,6.518C18.064,6.573 18.02,6.64 17.99,6.712C17.959,6.785 17.944,6.863 17.944,6.942C17.944,7.021 17.959,7.099 17.99,7.172C18.02,7.244 18.064,7.31 18.12,7.366C18.175,7.422 18.242,7.466 18.314,7.496C18.387,7.526 18.465,7.542 18.544,7.542L19.826,7.542C19.905,7.542 19.983,7.526 20.056,7.496C20.128,7.466 20.195,7.422 20.25,7.366C20.306,7.31 20.35,7.244 20.38,7.172C20.411,7.099 20.426,7.021 20.426,6.942C20.426,6.863 20.411,6.785 20.38,6.712C20.35,6.64 20.306,6.573 20.25,6.518C20.195,6.462 20.128,6.418 20.056,6.388C19.983,6.357 19.905,6.342 19.826,6.342Z" style="fill:white;fill-rule:nonzero;"/>
    <path d="M2.698,10.59L1.588,11.231C1.514,11.267 1.449,11.318 1.395,11.381C1.342,11.444 1.302,11.517 1.278,11.595C1.255,11.674 1.247,11.757 1.257,11.839C1.266,11.92 1.292,11.999 1.333,12.07C1.375,12.141 1.43,12.203 1.496,12.252C1.562,12.301 1.638,12.336 1.718,12.354C1.798,12.373 1.881,12.375 1.962,12.36C2.043,12.345 2.12,12.313 2.188,12.267L3.298,11.626C3.371,11.589 3.435,11.538 3.488,11.475C3.54,11.413 3.579,11.34 3.603,11.262C3.626,11.183 3.633,11.101 3.623,11.02C3.614,10.939 3.588,10.861 3.547,10.79C3.506,10.719 3.451,10.658 3.385,10.609C3.32,10.56 3.245,10.525 3.166,10.507C3.086,10.488 3.004,10.485 2.923,10.5C2.843,10.514 2.766,10.544 2.698,10.589L2.698,10.59Z" style="fill:white;fill-rule:nonzero;"/>
    <path d="M17.429,3.374C17.534,3.374 17.638,3.346 17.729,3.294L18.839,2.653C18.913,2.617 18.978,2.566 19.032,2.503C19.085,2.44 19.125,2.367 19.149,2.289C19.172,2.21 19.18,2.127 19.17,2.045C19.161,1.964 19.135,1.885 19.094,1.814C19.052,1.743 18.997,1.681 18.931,1.632C18.865,1.583 18.789,1.548 18.709,1.53C18.629,1.511 18.546,1.509 18.465,1.524C18.384,1.539 18.307,1.571 18.239,1.617L17.129,2.258C17.016,2.325 16.928,2.426 16.878,2.548C16.828,2.669 16.82,2.804 16.854,2.931C16.888,3.057 16.963,3.169 17.067,3.25C17.17,3.33 17.298,3.373 17.429,3.374Z" style="fill:white;fill-rule:nonzero;"/>
    <path d="M18.838,11.231L17.728,10.59C17.66,10.544 17.583,10.512 17.502,10.498C17.421,10.483 17.338,10.484 17.258,10.503C17.178,10.521 17.102,10.556 17.036,10.605C16.97,10.654 16.915,10.716 16.873,10.787C16.832,10.858 16.806,10.937 16.797,11.019C16.787,11.1 16.795,11.183 16.818,11.262C16.842,11.34 16.882,11.413 16.935,11.476C16.989,11.539 17.054,11.59 17.128,11.626L18.238,12.267C18.306,12.313 18.383,12.344 18.464,12.359C18.545,12.374 18.628,12.373 18.708,12.354C18.788,12.336 18.864,12.301 18.93,12.252C18.996,12.203 19.051,12.141 19.093,12.07C19.134,11.999 19.16,11.92 19.17,11.838C19.179,11.757 19.172,11.674 19.148,11.595C19.124,11.517 19.084,11.444 19.031,11.381C18.977,11.318 18.912,11.267 18.838,11.231Z" style="fill:white;fill-rule:nonzero;"/>
    <path d="M3.3,2.257L2.19,1.616C2.054,1.549 1.897,1.536 1.751,1.58C1.606,1.624 1.482,1.722 1.406,1.854C1.33,1.985 1.307,2.141 1.341,2.289C1.375,2.437 1.464,2.567 1.59,2.652L2.7,3.293C2.837,3.362 2.995,3.376 3.142,3.332C3.289,3.289 3.413,3.191 3.49,3.058C3.567,2.925 3.59,2.768 3.554,2.619C3.519,2.47 3.428,2.341 3.3,2.257Z" style="fill:white;fill-rule:nonzero;"/>
</svg>
