<svg xmlns="http://www.w3.org/2000/svg" xmlns:xlink="http://www.w3.org/1999/xlink" width="375" height="812" viewBox="0 0 375 812">
  <defs>
    <clipPath id="clip-path">
      <path id="Shape" d="M338.667-26.667h16.667A2.667,2.667,0,0,1,358-24v6h0a2.667,2.667,0,0,1-2.667,2.667H338.667A2.667,2.667,0,0,1,336-18v-6h0A2.667,2.667,0,0,1,338.667-26.667Z" transform="translate(0 44)" fill="#fff" clip-rule="evenodd"/>
    </clipPath>
    <clipPath id="clip-path-2">
      <path id="Shape-2" data-name="Shape" d="M359-23v4a2.17,2.17,0,0,0,1.328-2A2.17,2.17,0,0,0,359-23" transform="translate(0 44)" fill="#fff"/>
    </clipPath>
    <clipPath id="clip-path-3">
      <path id="Shape-3" data-name="Shape" d="M339.333-24.667h15.333A1.333,1.333,0,0,1,356-23.333v4.667h0a1.333,1.333,0,0,1-1.333,1.333H339.333A1.333,1.333,0,0,1,338-18.667v-4.667h0A1.333,1.333,0,0,1,339.333-24.667Z" transform="translate(0 44)" fill="#fff"/>
    </clipPath>
    <clipPath id="clip-path-4">
      <path id="Shape-4" data-name="Shape" d="M323.33-24.392a8.64,8.64,0,0,1,5.953,2.378.308.308,0,0,0,.433,0l1.156-1.167a.322.322,0,0,0,.093-.229.322.322,0,0,0-.1-.227,10.9,10.9,0,0,0-15.08,0,.322.322,0,0,0-.1.227.322.322,0,0,0,.093.229l1.156,1.167a.308.308,0,0,0,.433,0,8.641,8.641,0,0,1,5.954-2.378Zm0,3.8a4.907,4.907,0,0,1,3.294,1.27.31.31,0,0,0,.433-.006l1.155-1.167a.322.322,0,0,0,.094-.23.322.322,0,0,0-.1-.229,7.159,7.159,0,0,0-9.752,0,.322.322,0,0,0-.1.229.322.322,0,0,0,.094.23l1.154,1.167a.31.31,0,0,0,.433.006,4.907,4.907,0,0,1,3.292-1.27Zm2.219,2.784a.314.314,0,0,0,.094-.231.314.314,0,0,0-.1-.226,3.422,3.422,0,0,0-4.419,0,.314.314,0,0,0-.1.226.314.314,0,0,0,.094.231l2,2.016a.311.311,0,0,0,.222.093.312.312,0,0,0,.222-.093Z" transform="translate(0 44)" fill="#fff"/>
    </clipPath>
    <clipPath id="clip-path-5">
      <path id="Shape-5" data-name="Shape" d="M294.667-19.667h1a1,1,0,0,1,1,1v2a1,1,0,0,1-1,1h-1a1,1,0,0,1-1-1v-2a1,1,0,0,1,1-1Zm4.667-2h1a1,1,0,0,1,1,1v4a1,1,0,0,1-1,1h-1a1,1,0,0,1-1-1v-4A1,1,0,0,1,299.333-21.667ZM304-24h1a1,1,0,0,1,1,1v6.333a1,1,0,0,1-1,1h-1a1,1,0,0,1-1-1V-23A1,1,0,0,1,304-24Zm4.667-2.333h1a1,1,0,0,1,1,1v8.667a1,1,0,0,1-1,1h-1a1,1,0,0,1-1-1v-8.667a1,1,0,0,1,1-1Z" transform="translate(0 44)" fill="#fff"/>
    </clipPath>
    <filter id="Rectangle_1" x="7.5" y="183.5" width="157" height="78" filterUnits="userSpaceOnUse">
      <feOffset dy="3" input="SourceAlpha"/>
      <feGaussianBlur stdDeviation="5.5" result="blur"/>
      <feFlood flood-color="#0a4da2" flood-opacity="0.059"/>
      <feComposite operator="in" in2="blur"/>
      <feComposite in="SourceGraphic"/>
    </filter>
    <filter id="Rectangle_1-2" x="146.5" y="183.5" width="157" height="78" filterUnits="userSpaceOnUse">
      <feOffset dy="3" input="SourceAlpha"/>
      <feGaussianBlur stdDeviation="5.5" result="blur-2"/>
      <feFlood flood-color="#001631" flood-opacity="0.29"/>
      <feComposite operator="in" in2="blur-2"/>
      <feComposite in="SourceGraphic"/>
    </filter>
    <filter id="Rectangle_1-3" x="285.5" y="183.5" width="157" height="78" filterUnits="userSpaceOnUse">
      <feOffset dy="3" input="SourceAlpha"/>
      <feGaussianBlur stdDeviation="5.5" result="blur-3"/>
      <feFlood flood-color="#0a4da2" flood-opacity="0.059"/>
      <feComposite operator="in" in2="blur-3"/>
      <feComposite in="SourceGraphic"/>
    </filter>
    <filter id="Rectangle_12" x="-9" y="729" width="393" height="85" filterUnits="userSpaceOnUse">
      <feOffset dy="-7" input="SourceAlpha"/>
      <feGaussianBlur stdDeviation="3" result="blur-4"/>
      <feFlood flood-color="#568bd0" flood-opacity="0.051"/>
      <feComposite operator="in" in2="blur-4"/>
      <feComposite in="SourceGraphic"/>
    </filter>
    <filter id="OFF" x="239" y="118" width="70" height="70" filterUnits="userSpaceOnUse">
      <feOffset dy="3" input="SourceAlpha"/>
      <feGaussianBlur stdDeviation="8" result="blur-5"/>
      <feFlood flood-color="#002d67"/>
      <feComposite operator="in" in2="blur-5"/>
      <feComposite in="SourceGraphic"/>
    </filter>
    <filter id="Ellipse_10" x="239" y="118" width="70" height="70" filterUnits="userSpaceOnUse">
      <feOffset dy="3" input="SourceAlpha"/>
      <feGaussianBlur stdDeviation="8" result="blur-6"/>
      <feFlood flood-color="#ffc72f"/>
      <feComposite operator="in" in2="blur-6"/>
      <feComposite in="SourceGraphic"/>
    </filter>
    <filter id="Ellipse_12" x="303" y="338" width="26" height="26" filterUnits="userSpaceOnUse">
      <feOffset input="SourceAlpha"/>
      <feGaussianBlur stdDeviation="2" result="blur-7"/>
      <feFlood flood-color="#568bd0" flood-opacity="0.122"/>
      <feComposite operator="in" in2="blur-7"/>
      <feComposite in="SourceGraphic"/>
    </filter>
    <linearGradient id="linear-gradient" x1="0.272" y1="1.326" x2="0.951" y2="-0.209" gradientUnits="objectBoundingBox">
      <stop offset="0" stop-color="#ff9b9b"/>
      <stop offset="1" stop-color="#ffbc91"/>
    </linearGradient>
    <filter id="Rectangle_1-4" x="7.5" y="539.5" width="183" height="88" filterUnits="userSpaceOnUse">
      <feOffset dy="3" input="SourceAlpha"/>
      <feGaussianBlur stdDeviation="5.5" result="blur-8"/>
      <feFlood flood-color="#0a4da2" flood-opacity="0.059"/>
      <feComposite operator="in" in2="blur-8"/>
      <feComposite in="SourceGraphic"/>
    </filter>
    <linearGradient id="linear-gradient-2" x1="0.272" y1="1.326" x2="0.951" y2="-0.209" gradientUnits="objectBoundingBox">
      <stop offset="0" stop-color="#a693eb"/>
      <stop offset="1" stop-color="#da93eb"/>
    </linearGradient>
    <filter id="Rectangle_1-5" x="182.5" y="539.5" width="183" height="88" filterUnits="userSpaceOnUse">
      <feOffset dy="3" input="SourceAlpha"/>
      <feGaussianBlur stdDeviation="5.5" result="blur-9"/>
      <feFlood flood-color="#0a4da2" flood-opacity="0.059"/>
      <feComposite operator="in" in2="blur-9"/>
      <feComposite in="SourceGraphic"/>
    </filter>
    <linearGradient id="linear-gradient-3" x1="0.272" y1="1.326" x2="0.951" y2="-0.209" gradientUnits="objectBoundingBox">
      <stop offset="0" stop-color="#93caeb"/>
      <stop offset="1" stop-color="#93ddeb"/>
    </linearGradient>
    <filter id="Rectangle_1-6" x="7.5" y="613.5" width="183" height="88" filterUnits="userSpaceOnUse">
      <feOffset dy="3" input="SourceAlpha"/>
      <feGaussianBlur stdDeviation="5.5" result="blur-10"/>
      <feFlood flood-color="#0a4da2" flood-opacity="0.059"/>
      <feComposite operator="in" in2="blur-10"/>
      <feComposite in="SourceGraphic"/>
    </filter>
    <linearGradient id="linear-gradient-4" x1="0.272" y1="1.326" x2="0.951" y2="-0.209" gradientUnits="objectBoundingBox">
      <stop offset="0" stop-color="#89dd94"/>
      <stop offset="1" stop-color="#bfec92"/>
    </linearGradient>
    <filter id="Rectangle_1-7" x="182.5" y="613.5" width="183" height="88" filterUnits="userSpaceOnUse">
      <feOffset dy="3" input="SourceAlpha"/>
      <feGaussianBlur stdDeviation="5.5" result="blur-11"/>
      <feFlood flood-color="#0a4da2" flood-opacity="0.059"/>
      <feComposite operator="in" in2="blur-11"/>
      <feComposite in="SourceGraphic"/>
    </filter>
    <filter id="Ellipse_22" x="313" y="250" width="50" height="50" filterUnits="userSpaceOnUse">
      <feOffset dy="3" input="SourceAlpha"/>
      <feGaussianBlur stdDeviation="3" result="blur-12"/>
      <feFlood flood-color="#002d67" flood-opacity="0.098"/>
      <feComposite operator="in" in2="blur-12"/>
      <feComposite in="SourceGraphic"/>
    </filter>
    <clipPath id="clip-Bed_Room_3">
      <rect width="375" height="812"/>
    </clipPath>
  </defs>
  <g id="Bed_Room_3" data-name="Bed Room – 3" clip-path="url(#clip-Bed_Room_3)">
    <rect width="375" height="812" fill="#0a4da2"/>
    <g id="Circles" transform="translate(-23.688 178.811) rotate(-45)">
      <circle id="Ellipse_1" data-name="Ellipse 1" cx="97" cy="97" r="97" transform="translate(269 59)" fill="#fff" opacity="0.043"/>
      <circle id="Ellipse_1-2" data-name="Ellipse 1" cx="97" cy="97" r="97" transform="translate(-55 -97)" fill="#fff" opacity="0.043"/>
      <circle id="Ellipse_1-3" data-name="Ellipse 1" cx="97" cy="97" r="97" transform="translate(0 139)" fill="#fff" opacity="0.043"/>
    </g>
    <path id="grey_bg" data-name="grey bg" d="M31,0H344a31,31,0,0,1,31,31V539a0,0,0,0,1,0,0H0a0,0,0,0,1,0,0V31A31,31,0,0,1,31,0Z" transform="translate(0 273)" fill="#f6f8fb"/>
    <g id="status_bar_light" data-name="status bar/light" transform="translate(9 9)">
      <g id="Battery" transform="translate(-3.328 -15)">
        <g id="Border" clip-path="url(#clip-path)">
          <path id="Fill" d="M2.667,0H19.333A2.667,2.667,0,0,1,22,2.667v6h0a2.667,2.667,0,0,1-2.667,2.667H2.667A2.667,2.667,0,0,1,0,8.667v-6H0A2.667,2.667,0,0,1,2.667,0Z" transform="translate(336 17.333)" fill="#fff" stroke="rgba(0,0,0,0.35)" stroke-width="2"/>
        </g>
        <g id="Cap" clip-path="url(#clip-path-2)">
          <path id="Fill-2" data-name="Fill" d="M354-28h11.328v14H354Z" transform="translate(0 44)" fill="#fff"/>
        </g>
        <g id="Capacity" clip-path="url(#clip-path-3)">
          <path id="Fill-3" data-name="Fill" d="M333-29.667h28v17.333H333Z" transform="translate(0 44)" fill="#fff"/>
        </g>
      </g>
      <g id="Wifi" transform="translate(-3.328 -15)">
        <g id="Wifi-2" data-name="Wifi" clip-path="url(#clip-path-4)">
          <path id="Fill-4" data-name="Fill" d="M310.694-31.669h25.272V-10.7H310.694Z" transform="translate(0 44)" fill="#fff"/>
        </g>
      </g>
      <g id="Cellular_Connection" data-name="Cellular Connection" transform="translate(-3.328 -15)">
        <g id="Cellular_Connection-2" data-name="Cellular Connection" clip-path="url(#clip-path-5)">
          <path id="Fill-5" data-name="Fill" d="M288.667-31.333h27v20.667h-27Z" transform="translate(0 44)" fill="#fff"/>
        </g>
      </g>
      <g id="Bars___Time_Black" data-name="Bars/_/Time Black" transform="translate(-29 -15)">
        <path id="Background" d="M21-19H75V-35H21Z" transform="translate(8 50)" fill="none"/>
        <path id="_Time" data-name="↳ Time" d="M16.433,13.239c2.509,0,4-1.962,4-5.284a6.336,6.336,0,0,0-.7-3.117A3.5,3.5,0,0,0,16.487,2.89a3.43,3.43,0,0,0-3.664,3.466A3.159,3.159,0,0,0,16.07,9.637,2.727,2.727,0,0,0,18.627,8.16h.116c0,2.256-.854,3.6-2.3,3.6a1.716,1.716,0,0,1-1.729-1.21H12.96A3.324,3.324,0,0,0,16.433,13.239Zm.062-5A1.865,1.865,0,0,1,14.553,6.3a1.948,1.948,0,1,1,3.9.027A1.874,1.874,0,0,1,16.494,8.235Zm7.038,3.719a1.08,1.08,0,1,0-1.094-1.08A1.048,1.048,0,0,0,23.532,11.954Zm0-5.127a1.043,1.043,0,0,0,1.094-1.073,1.094,1.094,0,0,0-2.187,0A1.047,1.047,0,0,0,23.532,6.827ZM31.445,13h1.688V11.161h1.333V9.671H33.134V3.136H30.646c-1.743,2.625-3.131,4.819-4.02,6.453v1.572h4.819ZM28.26,9.609c1.148-2.023,2.174-3.644,3.117-5.038h.1V9.712H28.26ZM38.511,13h1.764V3.136H38.518L35.94,4.94v1.7l2.454-1.723h.116Z" transform="translate(29 17)" fill="#fff"/>
      </g>
    </g>
    <g id="Group_37" data-name="Group 37">
      <g id="Group_2" data-name="Group 2" transform="translate(0 -65)">
        <g transform="matrix(1, 0, 0, 1, 0, 65)" filter="url(#Rectangle_1)">
          <rect id="Rectangle_1-8" data-name="Rectangle 1" width="124" height="45" rx="12" transform="translate(24 197)" fill="#fff"/>
        </g>
        <text id="Main_Light" data-name="Main Light" transform="translate(98 289)" fill="#002d67" font-size="13" font-family="SegoeUI-Bold, Segoe UI" font-weight="700"><tspan x="-32.928" y="0">Main Light</tspan></text>
        <g id="surface1" transform="translate(36 273.575)">
          <path id="Path_101" data-name="Path 101" d="M102.765,0a6.367,6.367,0,0,0-3.8,11.474v.532a1.876,1.876,0,0,0-.134,2.694,1.879,1.879,0,0,0,.818,3.078,3.162,3.162,0,0,0,6.239,0A1.879,1.879,0,0,0,106.7,14.7a1.876,1.876,0,0,0-.134-2.694v-.532A6.367,6.367,0,0,0,102.765,0Zm2.564,12.734a.684.684,0,0,1,0,1.367H100.2a.684.684,0,1,1,0-1.367Zm-2.564,6.495a1.969,1.969,0,0,1-1.872-1.367h3.745A1.969,1.969,0,0,1,102.765,19.229Zm2.564-2.564H100.2a.683.683,0,1,1,0-1.367h5.128a.683.683,0,0,1,0,1.367Zm.308-6a.6.6,0,0,0-.266.5v.374h-.726V9.179l.859-.859a.6.6,0,1,0-.846-.846l-1.035,1.035a.6.6,0,0,0-.175.423v2.606h-1.367V8.931a.6.6,0,0,0-.175-.423l-1.035-1.035a.6.6,0,1,0-.846.846l.859.859v2.359h-.726v-.374a.6.6,0,0,0-.266-.5,5.17,5.17,0,1,1,5.744,0Zm0,0" transform="translate(-92.553 0)" fill="#002d67"/>
          <path id="Path_102" data-name="Path 102" d="M2.479,145.2a.6.6,0,0,0-.6-.6H.6a.6.6,0,1,0,0,1.2H1.88A.6.6,0,0,0,2.479,145.2Zm0,0" transform="translate(0 -138.833)" fill="#002d67"/>
          <path id="Path_103" data-name="Path 103" d="M451.747,144.6h-1.282a.6.6,0,1,0,0,1.2h1.282a.6.6,0,1,0,0-1.2Zm0,0" transform="translate(-431.921 -138.833)" fill="#002d67"/>
          <path id="Path_104" data-name="Path 104" d="M33.695,249.112l-1.11.641a.6.6,0,1,0,.6,1.036l1.11-.641a.6.6,0,1,0-.6-1.037Zm0,0" transform="translate(-30.997 -239.097)" fill="#002d67"/>
          <path id="Path_105" data-name="Path 105" d="M422.48,25.937a.6.6,0,0,0,.3-.08l1.11-.641a.6.6,0,1,0-.6-1.036l-1.11.641a.6.6,0,0,0,.3,1.117Zm0,0" transform="translate(-405.051 -23.138)" fill="#002d67"/>
          <path id="Path_106" data-name="Path 106" d="M423.888,249.757l-1.11-.641a.6.6,0,1,0-.6,1.036l1.11.641a.6.6,0,1,0,.6-1.036Zm0,0" transform="translate(-405.05 -239.101)" fill="#002d67"/>
          <path id="Path_107" data-name="Path 107" d="M34.3,24.821l-1.11-.641a.6.6,0,0,0-.6,1.036l1.11.641a.6.6,0,0,0,.6-1.037Zm0,0" transform="translate(-31 -23.139)" fill="#002d67"/>
        </g>
      </g>
      <g id="Group_15" data-name="Group 15" transform="translate(139 -65)">
        <g transform="matrix(1, 0, 0, 1, -139, 65)" filter="url(#Rectangle_1-2)">
          <rect id="Rectangle_1-9" data-name="Rectangle 1" width="124" height="45" rx="12" transform="translate(163 197)" fill="#093b7b"/>
        </g>
        <text id="Desk_lights" data-name="Desk lights" transform="translate(100 289)" fill="#fff" font-size="13" font-family="SegoeUI-Bold, Segoe UI" font-weight="700"><tspan x="-33.617" y="0">Desk lights</tspan></text>
        <path id="furniture-and-household" d="M19.476,7.621H7.621V6.774h3.387a.847.847,0,0,0,.847-.847V.847A.847.847,0,0,0,11.008,0H2.54a.847.847,0,0,0-.847.847V5.927a.847.847,0,0,0,.847.847H5.927v.847H.847A.847.847,0,0,0,0,8.468V20.323H1.694V11.855H11.855v5.927a.847.847,0,0,0,.847.847h5.927v1.694h1.694V8.468A.847.847,0,0,0,19.476,7.621ZM3.387,1.694h6.774V5.081H3.387ZM1.694,9.315H18.629v.847H1.694Zm16.936,2.54v1.694H13.548V11.855Zm-5.081,5.081V15.242h5.081v1.694Z" transform="translate(38 272.677)" fill="#fff"/>
      </g>
      <g id="Group_16" data-name="Group 16" transform="translate(278 -65)">
        <g transform="matrix(1, 0, 0, 1, -278, 65)" filter="url(#Rectangle_1-3)">
          <rect id="Rectangle_1-10" data-name="Rectangle 1" width="124" height="45" rx="12" transform="translate(302 197)" fill="#fff"/>
        </g>
        <text id="Bed_Light" data-name="Bed Light" transform="translate(99 289)" fill="#002d67" font-size="13" font-family="SegoeUI-Bold, Segoe UI" font-weight="700"><tspan x="-29.139" y="0">Bed Light</tspan></text>
        <g id="bed_1_" data-name="bed (1)" transform="translate(39.318 196)">
          <g id="Group_18" data-name="Group 18" transform="translate(7.225 83.61)">
            <g id="Group_17" data-name="Group 17">
              <path id="Path_108" data-name="Path 108" d="M163.183,154.6H150.9c-.6,0-1.6.227-1.6,1.771v2.361h15.485v-2.361C164.785,154.832,163.783,154.6,163.183,154.6Z" transform="translate(-149.3 -154.6)" fill="#002d67"/>
            </g>
          </g>
          <g id="Group_20" data-name="Group 20" transform="translate(0 80)">
            <g id="Group_19" data-name="Group 19">
              <path id="Path_109" data-name="Path 109" d="M3.886,88.255H1.548V80H0V96H1.548V91.87H22.2V96h1.548V88.255Z" transform="translate(0 -80)" fill="#002d67"/>
            </g>
          </g>
          <g id="Group_22" data-name="Group 22" transform="translate(1.965 83.513)">
            <g id="Group_21" data-name="Group 21" transform="translate(0 0)">
              <circle id="Ellipse_11" data-name="Ellipse 11" cx="2.163" cy="2.163" r="2.163" fill="#002d67"/>
            </g>
          </g>
        </g>
      </g>
    </g>
    <text id="_4_Lights" data-name="4 Lights" transform="translate(24 163)" fill="#ffd239" font-size="19" font-family="SegoeUI-Bold, Segoe UI" font-weight="700"><tspan x="0" y="0">4 Lights</tspan></text>
    <g id="bottom_bar" data-name="bottom bar" transform="translate(0 -2)">
      <g transform="matrix(1, 0, 0, 1, 0, 2)" filter="url(#Rectangle_12)">
        <rect id="Rectangle_12-2" data-name="Rectangle 12" width="375" height="67" transform="translate(0 745)" fill="#fff"/>
      </g>
      <g id="Icon_feather-settings" data-name="Icon feather-settings" transform="translate(267.94 767)">
        <path id="Path_1" data-name="Path 1" d="M20.316,16.908A3.408,3.408,0,1,1,16.908,13.5,3.408,3.408,0,0,1,20.316,16.908Z" transform="translate(-4.412 -4.412)" fill="none" stroke="#002d67" stroke-linecap="round" stroke-linejoin="round" stroke-width="2.5"/>
        <path id="Path_2" data-name="Path 2" d="M22.4,17.4a1.874,1.874,0,0,0,.375,2.068l.068.068a2.273,2.273,0,1,1-3.215,3.215l-.068-.068a1.89,1.89,0,0,0-3.2,1.34v.193a2.272,2.272,0,0,1-4.544,0v-.1A1.874,1.874,0,0,0,10.588,22.4a1.874,1.874,0,0,0-2.068.375l-.068.068A2.273,2.273,0,1,1,5.237,19.63l.068-.068a1.89,1.89,0,0,0-1.34-3.2H3.772a2.272,2.272,0,0,1,0-4.544h.1A1.874,1.874,0,0,0,5.59,10.588,1.874,1.874,0,0,0,5.215,8.52l-.068-.068A2.273,2.273,0,1,1,8.361,5.237l.068.068A1.874,1.874,0,0,0,10.5,5.68h.091a1.874,1.874,0,0,0,1.136-1.715V3.772a2.272,2.272,0,0,1,4.544,0v.1a1.89,1.89,0,0,0,3.2,1.34l.068-.068a2.273,2.273,0,1,1,3.215,3.215l-.068.068a1.874,1.874,0,0,0-.375,2.068v.091a1.874,1.874,0,0,0,1.715,1.136h.193a2.272,2.272,0,0,1,0,4.544h-.1A1.874,1.874,0,0,0,22.4,17.4Z" transform="translate(-1.5 -1.5)" fill="none" stroke="#588dd0" stroke-linecap="round" stroke-linejoin="round" stroke-width="2.5"/>
      </g>
      <g id="Icon_feather-home" data-name="Icon feather-home" transform="translate(177 766.81)">
        <path id="Path_4" data-name="Path 4" d="M13.5,31.124V18h7.874V31.124" transform="translate(-5.626 -4.876)" fill="none" stroke="#002d67" stroke-linecap="round" stroke-linejoin="round" stroke-width="3"/>
        <path id="Path_3" data-name="Path 3" d="M4.5,12.187,16.311,3l11.811,9.187V26.623A2.625,2.625,0,0,1,25.5,29.248H7.125A2.625,2.625,0,0,1,4.5,26.623Z" transform="translate(-4.5 -3)" fill="none" stroke="#588dd0" stroke-linecap="round" stroke-linejoin="round" stroke-width="3"/>
      </g>
      <g id="bulb" transform="translate(2 7)">
        <path id="Icon_material-lightbulb-outline" data-name="Icon material-lightbulb-outline" d="M12.886,28.585a1.351,1.351,0,0,0,1.347,1.347h5.386a1.351,1.351,0,0,0,1.347-1.347V27.239h-8.08ZM16.926,3A9.422,9.422,0,0,0,11.54,20.156V23.2a1.351,1.351,0,0,0,1.347,1.347h8.08A1.351,1.351,0,0,0,22.313,23.2V20.156A9.422,9.422,0,0,0,16.926,3Zm3.838,14.947-1.145.808v3.1H14.233v-3.1l-1.145-.808a6.733,6.733,0,1,1,7.676,0Z" transform="translate(83.5 757)" fill="#578cd0"/>
        <path id="Rectangle_3" data-name="Rectangle 3" d="M0,0H9A0,0,0,0,1,9,0V2A1,1,0,0,1,8,3H1A1,1,0,0,1,0,2V0A0,0,0,0,1,0,0Z" transform="translate(96 784)" fill="#002d67"/>
      </g>
    </g>
    <g id="light_bulb" data-name="light bulb">
      <g transform="matrix(1, 0, 0, 1, 0, 0)" filter="url(#OFF)">
        <circle id="OFF-2" data-name="OFF" cx="11" cy="11" r="11" transform="translate(263 139)" fill="#002d67"/>
      </g>
      <g transform="matrix(1, 0, 0, 1, 0, 0)" filter="url(#Ellipse_10)">
        <circle id="Ellipse_10-2" data-name="Ellipse 10" cx="11" cy="11" r="11" transform="translate(263 139)" fill="#ffd139"/>
      </g>
      <path id="Path_100" data-name="Path 100" d="M30.334,1.617h79.054c3.314,0,4.206,2.324,6,6L139,62a6,6,0,0,1-6,6H6a6,6,0,0,1-6-6L24.334,7.617C25.837,4.237,27.02,1.617,30.334,1.617Z" transform="translate(204 85)" fill="#fff"/>
      <rect id="Rectangle_13" data-name="Rectangle 13" width="5" height="102" transform="translate(271 -4)" fill="#fff"/>
      <rect id="Rectangle_14" data-name="Rectangle 14" width="4" height="58" rx="2" transform="matrix(0.921, -0.391, 0.391, 0.921, 303.828, 92.087)" fill="#568bd0" opacity="0.151"/>
    </g>
    <g id="intensity" transform="translate(0 -3)">
      <text id="Intensity-2" data-name="Intensity" transform="translate(24 322)" fill="#002d67" font-size="19" font-family="SegoeUI-Bold, Segoe UI" font-weight="700"><tspan x="0" y="0">Intensity</tspan></text>
      <g id="lines">
        <line id="Line_1" data-name="Line 1" x2="258" transform="translate(58.5 354.5)" fill="none" stroke="#cecece" stroke-width="1"/>
        <line id="Line_2" data-name="Line 2" y2="4.097" transform="translate(59.5 365.5)" fill="none" stroke="#cecece" stroke-width="1"/>
        <line id="Line_3" data-name="Line 3" y2="4.097" transform="translate(110.5 365.5)" fill="none" stroke="#cecece" stroke-width="1"/>
        <line id="Line_4" data-name="Line 4" y2="4.097" transform="translate(162.5 365.5)" fill="none" stroke="#cecece" stroke-width="1"/>
        <line id="Line_5" data-name="Line 5" y2="4.097" transform="translate(213.5 365.5)" fill="none" stroke="#cecece" stroke-width="1"/>
        <line id="Line_6" data-name="Line 6" y2="4.097" transform="translate(265.5 365.5)" fill="none" stroke="#cecece" stroke-width="1"/>
        <line id="Line_7" data-name="Line 7" y2="4.097" transform="translate(316.5 365.5)" fill="none" stroke="#cecece" stroke-width="1"/>
      </g>
      <g id="OFF-3" data-name="OFF" transform="translate(233.052 340.82)" opacity="0.996">
        <g id="Group_24" data-name="Group 24" transform="translate(98.948 4.851)">
          <g id="Group_23" data-name="Group 23">
            <path id="Path_110" data-name="Path 110" d="M116.235,96.78a8.644,8.644,0,1,0-13.362,7.243v2.723a4.718,4.718,0,0,0,9.436,0v-2.723A8.674,8.674,0,0,0,116.235,96.78Zm-5.592,9.966a3.052,3.052,0,0,1-6.1,0v-.7h6.1Zm.418-3.912a.833.833,0,0,0-.418.722v.826h-2.219v-4.308a2.7,2.7,0,0,0,1.866-2.567.833.833,0,1,0-1.666,0,1.033,1.033,0,1,1-2.066,0,.833.833,0,1,0-1.666,0,2.7,2.7,0,0,0,1.866,2.567v4.308H104.54v-.827a.833.833,0,0,0-.418-.722,6.978,6.978,0,1,1,6.94,0Z" transform="translate(-98.948 -88.136)" fill="#cecece"/>
          </g>
        </g>
        <g id="Group_26" data-name="Group 26" transform="translate(106.758)">
          <g id="Group_25" data-name="Group 25">
            <path id="Path_111" data-name="Path 111" d="M241.694,0a.833.833,0,0,0-.833.833V2.3a.833.833,0,0,0,1.666,0V.833A.833.833,0,0,0,241.694,0Z" transform="translate(-240.861)" fill="#cecece"/>
          </g>
        </g>
        <g id="Group_28" data-name="Group 28" transform="translate(103.118 0.602)">
          <g id="Group_27" data-name="Group 27">
            <path id="Path_112" data-name="Path 112" d="M176.849,12.854l-.517-1.368a.833.833,0,0,0-1.559.589l.517,1.368a.833.833,0,0,0,1.559-.589Z" transform="translate(-174.719 -10.947)" fill="#cecece"/>
          </g>
        </g>
        <g id="Group_30" data-name="Group 30" transform="translate(109.881 0.602)">
          <g id="Group_29" data-name="Group 29">
            <path id="Path_113" data-name="Path 113" d="M299.245,11a.833.833,0,0,0-1.074.485l-.517,1.368a.833.833,0,1,0,1.559.589l.517-1.368A.833.833,0,0,0,299.245,11Z" transform="translate(-297.6 -10.946)" fill="#cecece"/>
          </g>
        </g>
      </g>
      <g id="solution" transform="translate(233.052 340.82)">
        <g id="Group_24-2" data-name="Group 24" transform="translate(98.948 4.851)">
          <g id="Group_23-2" data-name="Group 23">
            <path id="Path_110-2" data-name="Path 110" d="M116.235,96.78a8.644,8.644,0,1,0-13.362,7.243v2.723a4.718,4.718,0,0,0,9.436,0v-2.723A8.674,8.674,0,0,0,116.235,96.78Zm-5.592,9.966a3.052,3.052,0,0,1-6.1,0v-.7h6.1Zm.418-3.912a.833.833,0,0,0-.418.722v.826h-2.219v-4.308a2.7,2.7,0,0,0,1.866-2.567.833.833,0,1,0-1.666,0,1.033,1.033,0,1,1-2.066,0,.833.833,0,1,0-1.666,0,2.7,2.7,0,0,0,1.866,2.567v4.308H104.54v-.827a.833.833,0,0,0-.418-.722,6.978,6.978,0,1,1,6.94,0Z" transform="translate(-98.948 -88.136)" fill="#ffd239"/>
          </g>
        </g>
        <g id="Group_26-2" data-name="Group 26" transform="translate(106.758)">
          <g id="Group_25-2" data-name="Group 25">
            <path id="Path_111-2" data-name="Path 111" d="M241.694,0a.833.833,0,0,0-.833.833V2.3a.833.833,0,0,0,1.666,0V.833A.833.833,0,0,0,241.694,0Z" transform="translate(-240.861)" fill="#ffd239"/>
          </g>
        </g>
        <g id="Group_28-2" data-name="Group 28" transform="translate(103.118 0.602)">
          <g id="Group_27-2" data-name="Group 27">
            <path id="Path_112-2" data-name="Path 112" d="M176.849,12.854l-.517-1.368a.833.833,0,0,0-1.559.589l.517,1.368a.833.833,0,0,0,1.559-.589Z" transform="translate(-174.719 -10.947)" fill="#ffd239"/>
          </g>
        </g>
        <g id="Group_30-2" data-name="Group 30" transform="translate(109.881 0.602)">
          <g id="Group_29-2" data-name="Group 29">
            <path id="Path_113-2" data-name="Path 113" d="M299.245,11a.833.833,0,0,0-1.074.485l-.517,1.368a.833.833,0,1,0,1.559.589l.517-1.368A.833.833,0,0,0,299.245,11Z" transform="translate(-297.6 -10.946)" fill="#ffd239"/>
          </g>
        </g>
      </g>
      <g id="solution-2" data-name="solution" transform="translate(-74.948 340.82)">
        <g id="Group_24-3" data-name="Group 24" transform="translate(98.948 4.851)">
          <g id="Group_23-3" data-name="Group 23">
            <path id="Path_110-3" data-name="Path 110" d="M116.235,96.78a8.644,8.644,0,1,0-13.362,7.243v2.723a4.718,4.718,0,0,0,9.436,0v-2.723A8.674,8.674,0,0,0,116.235,96.78Zm-5.592,9.966a3.052,3.052,0,0,1-6.1,0v-.7h6.1Zm.418-3.912a.833.833,0,0,0-.418.722v.826h-2.219v-4.308a2.7,2.7,0,0,0,1.866-2.567.833.833,0,1,0-1.666,0,1.033,1.033,0,1,1-2.066,0,.833.833,0,1,0-1.666,0,2.7,2.7,0,0,0,1.866,2.567v4.308H104.54v-.827a.833.833,0,0,0-.418-.722,6.978,6.978,0,1,1,6.94,0Z" transform="translate(-98.948 -88.136)" fill="#cecece"/>
          </g>
        </g>
      </g>
      <g id="ON">
        <line id="Line_8" data-name="Line 8" x2="258.216" transform="translate(58.5 354.5)" fill="none" stroke="#ffd339" stroke-width="1"/>
        <g transform="matrix(1, 0, 0, 1, 0, 3)" filter="url(#Ellipse_12)">
          <circle id="Ellipse_12-2" data-name="Ellipse 12" cx="7" cy="7" r="7" transform="translate(309 344)" fill="#fff"/>
        </g>
      </g>
    </g>
    <g id="intensity-3" data-name="intensity" transform="translate(0 98)">
      <text id="Colors" transform="translate(24 322)" fill="#002d67" font-size="19" font-family="SegoeUI-Bold, Segoe UI" font-weight="700"><tspan x="0" y="0">Colors</tspan></text>
      <circle id="Ellipse_13" data-name="Ellipse 13" cx="14.5" cy="14.5" r="14.5" transform="translate(24 349)" fill="#ff9b9b"/>
      <circle id="Ellipse_14" data-name="Ellipse 14" cx="14.5" cy="14.5" r="14.5" transform="translate(69 349)" fill="#94eb9e"/>
      <circle id="Ellipse_15" data-name="Ellipse 15" cx="14.5" cy="14.5" r="14.5" transform="translate(114 349)" fill="#94caeb"/>
      <circle id="Ellipse_16" data-name="Ellipse 16" cx="14.5" cy="14.5" r="14.5" transform="translate(159 349)" fill="#a594eb"/>
      <circle id="Ellipse_17" data-name="Ellipse 17" cx="14.5" cy="14.5" r="14.5" transform="translate(204 349)" fill="#de94eb"/>
      <circle id="Ellipse_18" data-name="Ellipse 18" cx="14.5" cy="14.5" r="14.5" transform="translate(249 349)" fill="#ebd094"/>
      <circle id="Ellipse_19" data-name="Ellipse 19" cx="14.5" cy="14.5" r="14.5" transform="translate(294 349)" fill="#fff"/>
    </g>
    <g id="intensity-4" data-name="intensity" transform="translate(0 207)">
      <text id="Scenes_" data-name="Scenes
" transform="translate(24 322)" fill="#002d67" font-size="19" font-family="SegoeUI-Bold, Segoe UI" font-weight="700"><tspan x="0" y="0">Scenes</tspan><tspan font-family="CircularStd-Bold, Circular Std"><tspan x="0" y="19"></tspan></tspan></text>
      <g id="Group_31" data-name="Group 31" transform="translate(24 346)">
        <g transform="matrix(1, 0, 0, 1, -24, -553)" filter="url(#Rectangle_1-4)">
          <rect id="Rectangle_1-11" data-name="Rectangle 1" width="150" height="55" rx="13" transform="translate(24 553)" fill="url(#linear-gradient)"/>
        </g>
        <text id="Birthday" transform="translate(68 32)" fill="#fff" font-size="13" font-family="SegoeUI-Bold, Segoe UI" font-weight="700"><tspan x="0" y="0">Birthday</tspan></text>
        <g id="surface1-2" data-name="surface1" transform="translate(25.02 16.575)">
          <path id="Path_101-2" data-name="Path 101" d="M102.765,0a6.367,6.367,0,0,0-3.8,11.474v.532a1.876,1.876,0,0,0-.134,2.694,1.879,1.879,0,0,0,.818,3.078,3.162,3.162,0,0,0,6.239,0A1.879,1.879,0,0,0,106.7,14.7a1.876,1.876,0,0,0-.134-2.694v-.532A6.367,6.367,0,0,0,102.765,0Zm2.564,12.734a.684.684,0,0,1,0,1.367H100.2a.684.684,0,1,1,0-1.367Zm-2.564,6.495a1.969,1.969,0,0,1-1.872-1.367h3.745A1.969,1.969,0,0,1,102.765,19.229Zm2.564-2.564H100.2a.683.683,0,1,1,0-1.367h5.128a.683.683,0,0,1,0,1.367Zm.308-6a.6.6,0,0,0-.266.5v.374h-.726V9.179l.859-.859a.6.6,0,1,0-.846-.846l-1.035,1.035a.6.6,0,0,0-.175.423v2.606h-1.367V8.931a.6.6,0,0,0-.175-.423l-1.035-1.035a.6.6,0,1,0-.846.846l.859.859v2.359h-.726v-.374a.6.6,0,0,0-.266-.5,5.17,5.17,0,1,1,5.744,0Zm0,0" transform="translate(-92.553 0)" fill="#fff"/>
          <path id="Path_102-2" data-name="Path 102" d="M2.479,145.2a.6.6,0,0,0-.6-.6H.6a.6.6,0,1,0,0,1.2H1.88A.6.6,0,0,0,2.479,145.2Zm0,0" transform="translate(0 -138.833)" fill="#fff"/>
          <path id="Path_103-2" data-name="Path 103" d="M451.747,144.6h-1.282a.6.6,0,1,0,0,1.2h1.282a.6.6,0,1,0,0-1.2Zm0,0" transform="translate(-431.921 -138.833)" fill="#fff"/>
          <path id="Path_104-2" data-name="Path 104" d="M33.695,249.112l-1.11.641a.6.6,0,1,0,.6,1.036l1.11-.641a.6.6,0,1,0-.6-1.037Zm0,0" transform="translate(-30.997 -239.097)" fill="#fff"/>
          <path id="Path_105-2" data-name="Path 105" d="M422.48,25.937a.6.6,0,0,0,.3-.08l1.11-.641a.6.6,0,1,0-.6-1.036l-1.11.641a.6.6,0,0,0,.3,1.117Zm0,0" transform="translate(-405.051 -23.138)" fill="#fff"/>
          <path id="Path_106-2" data-name="Path 106" d="M423.888,249.757l-1.11-.641a.6.6,0,1,0-.6,1.036l1.11.641a.6.6,0,1,0,.6-1.036Zm0,0" transform="translate(-405.05 -239.101)" fill="#fff"/>
          <path id="Path_107-2" data-name="Path 107" d="M34.3,24.821l-1.11-.641a.6.6,0,0,0-.6,1.036l1.11.641a.6.6,0,0,0,.6-1.037Zm0,0" transform="translate(-31 -23.139)" fill="#fff"/>
        </g>
      </g>
      <g id="Group_34" data-name="Group 34" transform="translate(199 346)">
        <g transform="matrix(1, 0, 0, 1, -199, -553)" filter="url(#Rectangle_1-5)">
          <rect id="Rectangle_1-12" data-name="Rectangle 1" width="150" height="55" rx="13" transform="translate(199 553)" fill="url(#linear-gradient-2)"/>
        </g>
        <text id="Party" transform="translate(68 32)" fill="#fff" font-size="13" font-family="SegoeUI-Bold, Segoe UI" font-weight="700"><tspan x="0" y="0">Party</tspan></text>
        <g id="surface1-3" data-name="surface1" transform="translate(25.02 16.575)">
          <path id="Path_101-3" data-name="Path 101" d="M102.765,0a6.367,6.367,0,0,0-3.8,11.474v.532a1.876,1.876,0,0,0-.134,2.694,1.879,1.879,0,0,0,.818,3.078,3.162,3.162,0,0,0,6.239,0A1.879,1.879,0,0,0,106.7,14.7a1.876,1.876,0,0,0-.134-2.694v-.532A6.367,6.367,0,0,0,102.765,0Zm2.564,12.734a.684.684,0,0,1,0,1.367H100.2a.684.684,0,1,1,0-1.367Zm-2.564,6.495a1.969,1.969,0,0,1-1.872-1.367h3.745A1.969,1.969,0,0,1,102.765,19.229Zm2.564-2.564H100.2a.683.683,0,1,1,0-1.367h5.128a.683.683,0,0,1,0,1.367Zm.308-6a.6.6,0,0,0-.266.5v.374h-.726V9.179l.859-.859a.6.6,0,1,0-.846-.846l-1.035,1.035a.6.6,0,0,0-.175.423v2.606h-1.367V8.931a.6.6,0,0,0-.175-.423l-1.035-1.035a.6.6,0,1,0-.846.846l.859.859v2.359h-.726v-.374a.6.6,0,0,0-.266-.5,5.17,5.17,0,1,1,5.744,0Zm0,0" transform="translate(-92.553 0)" fill="#fff"/>
          <path id="Path_102-3" data-name="Path 102" d="M2.479,145.2a.6.6,0,0,0-.6-.6H.6a.6.6,0,1,0,0,1.2H1.88A.6.6,0,0,0,2.479,145.2Zm0,0" transform="translate(0 -138.833)" fill="#fff"/>
          <path id="Path_103-3" data-name="Path 103" d="M451.747,144.6h-1.282a.6.6,0,1,0,0,1.2h1.282a.6.6,0,1,0,0-1.2Zm0,0" transform="translate(-431.921 -138.833)" fill="#fff"/>
          <path id="Path_104-3" data-name="Path 104" d="M33.695,249.112l-1.11.641a.6.6,0,1,0,.6,1.036l1.11-.641a.6.6,0,1,0-.6-1.037Zm0,0" transform="translate(-30.997 -239.097)" fill="#fff"/>
          <path id="Path_105-3" data-name="Path 105" d="M422.48,25.937a.6.6,0,0,0,.3-.08l1.11-.641a.6.6,0,1,0-.6-1.036l-1.11.641a.6.6,0,0,0,.3,1.117Zm0,0" transform="translate(-405.051 -23.138)" fill="#fff"/>
          <path id="Path_106-3" data-name="Path 106" d="M423.888,249.757l-1.11-.641a.6.6,0,1,0-.6,1.036l1.11.641a.6.6,0,1,0,.6-1.036Zm0,0" transform="translate(-405.05 -239.101)" fill="#fff"/>
          <path id="Path_107-3" data-name="Path 107" d="M34.3,24.821l-1.11-.641a.6.6,0,0,0-.6,1.036l1.11.641a.6.6,0,0,0,.6-1.037Zm0,0" transform="translate(-31 -23.139)" fill="#fff"/>
        </g>
      </g>
      <g id="Group_33" data-name="Group 33" transform="translate(24 420)">
        <g transform="matrix(1, 0, 0, 1, -24, -627)" filter="url(#Rectangle_1-6)">
          <rect id="Rectangle_1-13" data-name="Rectangle 1" width="150" height="55" rx="13" transform="translate(24 627)" fill="url(#linear-gradient-3)"/>
        </g>
        <text id="Relax" transform="translate(68 32)" fill="#fff" font-size="13" font-family="SegoeUI-Bold, Segoe UI" font-weight="700"><tspan x="0" y="0">Relax</tspan></text>
        <g id="surface1-4" data-name="surface1" transform="translate(25.02 16.575)">
          <path id="Path_101-4" data-name="Path 101" d="M102.765,0a6.367,6.367,0,0,0-3.8,11.474v.532a1.876,1.876,0,0,0-.134,2.694,1.879,1.879,0,0,0,.818,3.078,3.162,3.162,0,0,0,6.239,0A1.879,1.879,0,0,0,106.7,14.7a1.876,1.876,0,0,0-.134-2.694v-.532A6.367,6.367,0,0,0,102.765,0Zm2.564,12.734a.684.684,0,0,1,0,1.367H100.2a.684.684,0,1,1,0-1.367Zm-2.564,6.495a1.969,1.969,0,0,1-1.872-1.367h3.745A1.969,1.969,0,0,1,102.765,19.229Zm2.564-2.564H100.2a.683.683,0,1,1,0-1.367h5.128a.683.683,0,0,1,0,1.367Zm.308-6a.6.6,0,0,0-.266.5v.374h-.726V9.179l.859-.859a.6.6,0,1,0-.846-.846l-1.035,1.035a.6.6,0,0,0-.175.423v2.606h-1.367V8.931a.6.6,0,0,0-.175-.423l-1.035-1.035a.6.6,0,1,0-.846.846l.859.859v2.359h-.726v-.374a.6.6,0,0,0-.266-.5,5.17,5.17,0,1,1,5.744,0Zm0,0" transform="translate(-92.553 0)" fill="#fff"/>
          <path id="Path_102-4" data-name="Path 102" d="M2.479,145.2a.6.6,0,0,0-.6-.6H.6a.6.6,0,1,0,0,1.2H1.88A.6.6,0,0,0,2.479,145.2Zm0,0" transform="translate(0 -138.833)" fill="#fff"/>
          <path id="Path_103-4" data-name="Path 103" d="M451.747,144.6h-1.282a.6.6,0,1,0,0,1.2h1.282a.6.6,0,1,0,0-1.2Zm0,0" transform="translate(-431.921 -138.833)" fill="#fff"/>
          <path id="Path_104-4" data-name="Path 104" d="M33.695,249.112l-1.11.641a.6.6,0,1,0,.6,1.036l1.11-.641a.6.6,0,1,0-.6-1.037Zm0,0" transform="translate(-30.997 -239.097)" fill="#fff"/>
          <path id="Path_105-4" data-name="Path 105" d="M422.48,25.937a.6.6,0,0,0,.3-.08l1.11-.641a.6.6,0,1,0-.6-1.036l-1.11.641a.6.6,0,0,0,.3,1.117Zm0,0" transform="translate(-405.051 -23.138)" fill="#fff"/>
          <path id="Path_106-4" data-name="Path 106" d="M423.888,249.757l-1.11-.641a.6.6,0,1,0-.6,1.036l1.11.641a.6.6,0,1,0,.6-1.036Zm0,0" transform="translate(-405.05 -239.101)" fill="#fff"/>
          <path id="Path_107-4" data-name="Path 107" d="M34.3,24.821l-1.11-.641a.6.6,0,0,0-.6,1.036l1.11.641a.6.6,0,0,0,.6-1.037Zm0,0" transform="translate(-31 -23.139)" fill="#fff"/>
        </g>
      </g>
      <g id="Group_35" data-name="Group 35" transform="translate(199 420)">
        <g transform="matrix(1, 0, 0, 1, -199, -627)" filter="url(#Rectangle_1-7)">
          <rect id="Rectangle_1-14" data-name="Rectangle 1" width="150" height="55" rx="13" transform="translate(199 627)" fill="url(#linear-gradient-4)"/>
        </g>
        <text id="Fun" transform="translate(68 32)" fill="#fff" font-size="13" font-family="SegoeUI-Bold, Segoe UI" font-weight="700"><tspan x="0" y="0">Fun</tspan></text>
        <g id="surface1-5" data-name="surface1" transform="translate(25.02 16.575)">
          <path id="Path_101-5" data-name="Path 101" d="M102.765,0a6.367,6.367,0,0,0-3.8,11.474v.532a1.876,1.876,0,0,0-.134,2.694,1.879,1.879,0,0,0,.818,3.078,3.162,3.162,0,0,0,6.239,0A1.879,1.879,0,0,0,106.7,14.7a1.876,1.876,0,0,0-.134-2.694v-.532A6.367,6.367,0,0,0,102.765,0Zm2.564,12.734a.684.684,0,0,1,0,1.367H100.2a.684.684,0,1,1,0-1.367Zm-2.564,6.495a1.969,1.969,0,0,1-1.872-1.367h3.745A1.969,1.969,0,0,1,102.765,19.229Zm2.564-2.564H100.2a.683.683,0,1,1,0-1.367h5.128a.683.683,0,0,1,0,1.367Zm.308-6a.6.6,0,0,0-.266.5v.374h-.726V9.179l.859-.859a.6.6,0,1,0-.846-.846l-1.035,1.035a.6.6,0,0,0-.175.423v2.606h-1.367V8.931a.6.6,0,0,0-.175-.423l-1.035-1.035a.6.6,0,1,0-.846.846l.859.859v2.359h-.726v-.374a.6.6,0,0,0-.266-.5,5.17,5.17,0,1,1,5.744,0Zm0,0" transform="translate(-92.553 0)" fill="#fff"/>
          <path id="Path_102-5" data-name="Path 102" d="M2.479,145.2a.6.6,0,0,0-.6-.6H.6a.6.6,0,1,0,0,1.2H1.88A.6.6,0,0,0,2.479,145.2Zm0,0" transform="translate(0 -138.833)" fill="#fff"/>
          <path id="Path_103-5" data-name="Path 103" d="M451.747,144.6h-1.282a.6.6,0,1,0,0,1.2h1.282a.6.6,0,1,0,0-1.2Zm0,0" transform="translate(-431.921 -138.833)" fill="#fff"/>
          <path id="Path_104-5" data-name="Path 104" d="M33.695,249.112l-1.11.641a.6.6,0,1,0,.6,1.036l1.11-.641a.6.6,0,1,0-.6-1.037Zm0,0" transform="translate(-30.997 -239.097)" fill="#fff"/>
          <path id="Path_105-5" data-name="Path 105" d="M422.48,25.937a.6.6,0,0,0,.3-.08l1.11-.641a.6.6,0,1,0-.6-1.036l-1.11.641a.6.6,0,0,0,.3,1.117Zm0,0" transform="translate(-405.051 -23.138)" fill="#fff"/>
          <path id="Path_106-5" data-name="Path 106" d="M423.888,249.757l-1.11-.641a.6.6,0,1,0-.6,1.036l1.11.641a.6.6,0,1,0,.6-1.036Zm0,0" transform="translate(-405.05 -239.101)" fill="#fff"/>
          <path id="Path_107-5" data-name="Path 107" d="M34.3,24.821l-1.11-.641a.6.6,0,0,0-.6,1.036l1.11.641a.6.6,0,0,0,.6-1.037Zm0,0" transform="translate(-31 -23.139)" fill="#fff"/>
        </g>
      </g>
    </g>
    <text id="_" data-name="+" transform="translate(304 466)" fill="#002d67" font-size="16" font-family="SegoeUI-Bold, Segoe UI" font-weight="700"><tspan x="0" y="0">+</tspan></text>
    <text id="_Bed_Room" data-name="   Bed
Room" transform="translate(24 91)" fill="#fff" font-size="30" font-family="SegoeUI-Bold, Segoe UI" font-weight="700"><tspan x="0" y="0" xml:space="preserve">   Bed</tspan><tspan x="0" y="35">Room</tspan></text>
    <path id="Icon_ionic-md-arrow-round-back" data-name="Icon ionic-md-arrow-round-back" d="M18.468,11.683H9.917l3.317-3.173a1.322,1.322,0,0,0,0-1.806,1.182,1.182,0,0,0-1.726,0L5.985,12.059a1.217,1.217,0,0,0-.36.9v.016a1.217,1.217,0,0,0,.36.9L11.5,19.22a1.182,1.182,0,0,0,1.726,0,1.322,1.322,0,0,0,0-1.806L9.913,14.241h8.551a1.251,1.251,0,0,0,1.223-1.279A1.238,1.238,0,0,0,18.468,11.683Z" transform="translate(19.375 66.093)" fill="#fff"/>
    <g id="power_off" data-name="power off" transform="translate(5.2 5.2)">
      <g transform="matrix(1, 0, 0, 1, -5.2, -5.2)" filter="url(#Ellipse_22)">
        <circle id="Ellipse_22-2" data-name="Ellipse 22" cx="16" cy="16" r="16" transform="translate(322 256)" fill="#fff"/>
      </g>
      <path id="Icon_awesome-power-off" data-name="Icon awesome-power-off" d="M14.421,1.913a8.767,8.767,0,1,1-10.189,0,.851.851,0,0,1,1.237.272l.559.993a.848.848,0,0,1-.233,1.1,5.939,5.939,0,1,0,7.067,0,.843.843,0,0,1-.23-1.092l.559-.993a.847.847,0,0,1,1.23-.276ZM10.745,9.334V.849A.846.846,0,0,0,9.9,0H8.765a.846.846,0,0,0-.849.849V9.334a.846.846,0,0,0,.849.849H9.9A.846.846,0,0,0,10.745,9.334Z" transform="translate(323.209 257.587)" fill="#ff9696"/>
    </g>
  </g>
</svg>
